<svg width="37" height="40" xmlns="http://www.w3.org/2000/svg"><g fill="none" fill-rule="evenodd"><path fill="#FFF" d="M0 0h36.5v40l-18-9.6L0 40z"/><path d="M8.4 22.8c0 .6-.2 1-.5 1.2-.4.3-1 .5-1.6.5a4 4 0 0 1-1.6-.3v-.6a4.3 4.3 0 0 0 1.7.3c.4 0 .8-.1 1-.3.2-.1.3-.4.3-.7v-.5l-.5-.3c-.2-.2-.5-.3-.9-.4-.5-.2-1-.4-1.2-.7-.2-.3-.3-.6-.3-1 0-.5.2-.9.5-1.1.3-.3.8-.4 1.4-.4a4 4 0 0 1 1.6.3l-.2.6-1.5-.3c-.3 0-.6 0-.8.2-.2.2-.3.4-.3.7v.5c.2 0 .3.2.5.3l.8.4c.6.2 1 .4 1.3.7.2.2.3.5.3 1zm4.6 1.6H9.7v-5.8H13v.6h-2.7V21h2.5v.6h-2.5v2.2H13v.6zm1.3 0v-5.8h.7v5.2h2.6v.6h-3.3zm4.3 0v-5.8h.7v5.2h2.6v.6h-3.3zm7.6 0h-3.3v-5.8h3.3v.6h-2.6V21H26v.6h-2.4v2.2h2.6v.6zm2-2.4v2.4h-.7v-5.8h1.6c.8 0 1.3.1 1.7.4.3.2.5.7.5 1.2 0 .8-.4 1.3-1.2 1.6l1.6 2.6h-.8L29.4 22h-1.2zm0-.6h1c.4 0 .8-.1 1-.3.3-.2.4-.5.4-.9 0-.3-.2-.6-.4-.8-.2-.2-.6-.2-1.1-.2h-.9v2.2zM4.7 7.2h2.7c1.2 0 2 .2 2.6.5.6.4.8 1 .8 1.8 0 .5 0 1-.3 1.3-.3.4-.6.6-1 .7.6.1 1 .4 1.2.7.2.4.3.9.3 1.4 0 .9-.2 1.5-.8 2-.6.4-1.3.7-2.3.7H4.7V7.2zm1.8 3.6h1c.6 0 1 0 1.1-.3.3-.1.4-.4.4-.8 0-.3-.1-.6-.4-.7-.2-.2-.6-.2-1.1-.2h-1v2zm0 1.5v2.4h1.2c.5 0 .9-.1 1.1-.3.2-.2.4-.5.4-1 0-.7-.5-1-1.6-1h-1zm11.2 4h-5V7.2h5v1.6h-3.1v2h2.9v1.5h-3v2.4h3.2v1.6zm6.8-2.5c0 .8-.3 1.4-.8 1.9-.6.5-1.3.7-2.3.7-1 0-1.8-.2-2.5-.5V14l1.5.5c.4.2.8.2 1.1.2.4 0 .7 0 1-.2l.2-.8-.1-.4c0-.2-.2-.3-.4-.4l-1.1-.6-1.2-.8c-.3-.2-.5-.5-.6-.8-.2-.4-.3-.7-.3-1.2 0-.8.3-1.4.8-1.9a3 3 0 0 1 2.1-.6l1.3.1 1.3.5-.6 1.5-1.1-.4-1-.1c-.3 0-.5 0-.7.2-.2.2-.3.4-.3.7l.1.4.4.4 1.1.6c.8.4 1.4.8 1.7 1.3.3.4.4.9.4 1.5zm4.9 2.5h-1.8V8.8h-2.4V7.2h6.5v1.6h-2.3v7.5z" fill="#4A4A4A"/></g></svg>